<svg xmlns="http://www.w3.org/2000/svg" xmlns:xlink="http://www.w3.org/1999/xlink" width="480" zoomAndPan="magnify" viewBox="0 0 360 359.999987" height="480" preserveAspectRatio="xMidYMid meet" version="1.2"><defs><clipPath id="9e90ebc5b0"><path d="M 178 85 L 359.832031 85 L 359.832031 289 L 178 289 Z M 178 85 "/></clipPath><clipPath id="29eaf1a618"><path d="M 257 187 L 359.832031 187 L 359.832031 285 L 257 285 Z M 257 187 "/></clipPath><clipPath id="08dacc74e9"><path d="M 238 167 L 359.832031 167 L 359.832031 304 L 238 304 Z M 238 167 "/></clipPath></defs><g id="f1174befe9"><path style=" stroke:none;fill-rule:evenodd;fill:#fcb315;fill-opacity:1;" d="M 257.015625 104.882812 C 256.882812 105.167969 256.621094 105.046875 256.421875 105.046875 C 253.574219 105.019531 250.761719 105.355469 247.945312 105.710938 C 243.09375 106.316406 238.371094 107.429688 233.699219 108.847656 C 228.800781 110.332031 224.164062 112.414062 219.660156 114.804688 C 215.074219 117.238281 210.746094 120.085938 206.660156 123.28125 C 204.976562 124.597656 203.351562 125.996094 201.757812 127.429688 C 200.316406 128.722656 198.890625 129.835938 197.929688 131.113281 C 198.335938 131.371094 199.195312 131.011719 199.453125 131.292969 C 199.980469 131.859375 199.871094 132.277344 200.390625 131.746094 C 204.054688 128 207.714844 125.042969 212.023438 122.058594 C 215.066406 119.953125 218.230469 118.070312 221.484375 116.316406 C 225.886719 113.945312 230.480469 112.070312 235.257812 110.613281 C 238.519531 109.617188 241.828125 108.816406 245.195312 108.257812 C 247.460938 107.882812 249.738281 107.632812 252.023438 107.386719 C 255.605469 107 259.1875 107.019531 262.765625 107.121094 C 264.972656 107.179688 267.183594 107.457031 269.390625 107.714844 C 273.257812 108.171875 277.050781 108.96875 280.804688 109.960938 C 284.609375 110.960938 288.304688 112.273438 291.925781 113.816406 C 294.671875 114.988281 297.339844 116.304688 299.945312 117.746094 C 302.960938 119.414062 305.839844 121.300781 308.632812 123.324219 C 313.054688 126.527344 317.050781 130.214844 320.789062 134.175781 C 322.5 135.988281 324.078125 137.925781 325.605469 139.90625 C 327.628906 142.53125 329.496094 145.257812 331.207031 148.097656 C 332.804688 150.742188 334.160156 153.507812 335.421875 156.332031 C 336.703125 159.199219 337.820312 162.128906 338.738281 165.125 C 339.84375 168.730469 340.761719 172.382812 341.304688 176.125 C 341.683594 178.707031 341.972656 181.289062 342.167969 183.894531 C 342.378906 186.675781 342.378906 189.460938 342.257812 192.226562 C 342.121094 195.402344 341.71875 198.5625 341.167969 201.710938 C 340.398438 206.089844 339.265625 210.355469 337.761719 214.53125 C 336.261719 218.6875 334.417969 222.675781 332.222656 226.515625 C 330.507812 229.515625 328.601562 232.378906 326.539062 235.132812 C 325.410156 236.644531 324.167969 238.070312 322.941406 239.507812 C 321.886719 240.742188 320.761719 241.917969 319.621094 243.050781 C 317.984375 244.675781 316.304688 246.273438 314.523438 247.761719 C 311.847656 249.996094 309.125 252.171875 306.246094 254.132812 C 301.421875 257.417969 296.289062 260.097656 290.800781 262.113281 C 286.375 263.738281 281.855469 264.976562 277.21875 265.8125 C 275.5625 266.109375 273.925781 266.507812 272.25 266.734375 C 270.828125 266.925781 269.445312 266.84375 268.058594 266.628906 C 267.480469 266.539062 267.175781 266.632812 267.273438 267.296875 C 267.304688 267.484375 267.273438 267.695312 267.21875 267.878906 C 267.011719 268.585938 267.421875 268.871094 267.996094 268.855469 C 271.46875 268.75 274.949219 268.789062 278.359375 267.839844 C 280.648438 267.207031 283 266.777344 285.296875 266.15625 C 288.617188 265.253906 291.855469 264.125 295.011719 262.769531 C 299.6875 260.757812 304.105469 258.296875 308.265625 255.367188 C 310.820312 253.566406 313.289062 251.660156 315.671875 249.628906 C 317.757812 247.851562 319.8125 246.046875 321.707031 244.066406 C 325.03125 240.59375 328.101562 236.910156 330.800781 232.921875 C 332.824219 229.929688 334.65625 226.820312 336.269531 223.585938 C 338.882812 218.351562 340.871094 212.875 342.257812 207.195312 C 342.984375 204.226562 343.523438 201.207031 343.847656 198.152344 C 344.074219 195.992188 344.238281 193.832031 344.367188 191.664062 C 344.457031 190.207031 344.550781 188.75 344.476562 187.304688 C 344.328125 184.46875 344.171875 181.640625 343.851562 178.816406 C 343.246094 173.480469 342.039062 168.28125 340.402344 163.195312 C 339.519531 160.453125 338.460938 157.761719 337.265625 155.125 C 335.175781 150.507812 332.753906 146.097656 329.824219 141.964844 C 328.191406 139.664062 326.453125 137.445312 324.648438 135.273438 C 323.183594 133.511719 321.648438 131.804688 320.015625 130.214844 C 316.417969 126.707031 312.625 123.429688 308.46875 120.558594 C 304.625 117.902344 300.640625 115.507812 296.4375 113.484375 C 291.597656 111.15625 286.585938 109.296875 281.390625 107.898438 C 278.761719 107.191406 276.105469 106.589844 273.433594 106.121094 C 271.503906 105.785156 269.554688 105.523438 267.589844 105.367188 C 265.558594 105.207031 263.53125 105.003906 261.492188 105.046875 C 261.371094 105.050781 261.277344 105.007812 261.234375 104.882812 Z M 257.015625 104.882812 "/><g clip-rule="nonzero" clip-path="url(#9e90ebc5b0)"><path style="fill:none;stroke-width:5;stroke-linecap:butt;stroke-linejoin:miter;stroke:#fbb327;stroke-opacity:1;stroke-miterlimit:10;" d="M 0.00683223 0.00193282 C -0.473944 -1.029374 -1.421355 -0.591422 -2.14252 -0.591422 C -12.450924 -0.492529 -22.632064 -1.707493 -32.827345 -2.993094 C -50.389811 -5.182855 -67.485642 -9.209189 -84.397647 -14.337466 C -102.129799 -19.705911 -118.91454 -27.235862 -135.218505 -35.881883 C -151.819419 -44.683308 -167.487062 -54.982246 -182.277996 -66.53853 C -188.37254 -71.299493 -194.254977 -76.357133 -200.024289 -81.541921 C -205.242124 -86.218119 -210.403396 -90.244452 -213.881952 -94.864141 C -212.411343 -95.796555 -209.300439 -94.496826 -208.367168 -95.514005 C -206.458204 -97.562491 -206.854137 -99.074132 -204.973455 -97.152793 C -191.709692 -83.604534 -178.460069 -72.910026 -162.863128 -62.116626 C -151.8477 -54.501911 -140.393917 -47.692462 -128.614904 -41.349221 C -112.678592 -32.773836 -96.049396 -25.992643 -78.755599 -20.72309 C -66.948304 -17.120581 -54.971324 -14.224446 -42.782237 -12.204216 C -34.580763 -10.847977 -26.336868 -9.943818 -18.064691 -9.053786 C -5.097878 -7.655165 7.868935 -7.725802 20.821607 -8.093117 C 28.810974 -8.305029 36.814482 -9.308081 44.803849 -10.240495 C 58.802916 -11.893411 72.533315 -14.775418 86.122309 -18.3638 C 99.895129 -21.980437 113.272016 -26.727272 126.380233 -32.307629 C 136.320985 -36.545875 145.978928 -41.306838 155.410623 -46.519881 C 166.327068 -52.552318 176.748596 -59.375894 186.859033 -66.693932 C 202.866048 -78.278471 217.331751 -91.614819 230.864183 -105.94009 C 237.05771 -112.495244 242.770461 -119.502477 248.299386 -126.665113 C 255.62415 -136.158784 262.383296 -146.01977 268.576823 -156.290453 C 274.360276 -165.854761 279.26702 -175.857022 283.834393 -186.071195 C 288.472468 -196.44077 292.516643 -207.036385 295.839654 -217.872168 C 299.841407 -230.911838 303.164418 -244.121038 305.129944 -257.65517 C 306.50157 -266.993439 307.547965 -276.331708 308.254988 -285.754741 C 309.018574 -295.813512 309.018574 -305.88641 308.580219 -315.888671 C 308.085303 -327.374317 306.628834 -338.803454 304.635027 -350.190208 C 301.849354 -366.027121 297.748617 -381.454336 292.304536 -396.55662 C 286.874594 -411.588266 280.200291 -426.01243 272.253346 -439.899749 C 266.045678 -450.749659 259.145128 -461.105107 251.678959 -471.064985 C 247.592362 -476.532322 243.095692 -481.688855 238.655584 -486.88777 C 234.837656 -491.352056 230.7652 -495.604429 226.636182 -499.7014 C 220.711324 -505.578435 214.630921 -511.356577 208.182866 -516.739149 C 198.496642 -524.820072 188.640733 -532.689082 178.219205 -539.78108 C 160.755722 -551.662297 142.175141 -561.353753 122.307777 -568.643536 C 106.286622 -574.52057 89.926096 -578.998984 73.141355 -582.022266 C 67.145795 -583.095955 61.220937 -584.536958 55.154674 -585.356353 C 50.007542 -586.048599 45.001815 -585.751922 39.981947 -584.97491 C 37.889158 -584.649978 36.786201 -584.989038 37.139713 -587.390711 C 37.252836 -588.06883 37.139713 -588.831714 36.941746 -589.495706 C 36.192301 -592.052781 37.67705 -593.084088 39.7557 -593.027578 C 52.32658 -592.646136 64.925741 -592.787411 77.270373 -589.354431 C 85.55669 -587.065778 94.069254 -585.511755 102.383852 -583.265485 C 114.403253 -580.002035 126.125705 -575.919191 137.551206 -571.016954 C 154.477352 -563.741298 170.470226 -554.840981 185.529829 -544.245366 C 194.777698 -537.732595 203.714476 -530.838381 212.340165 -523.492088 C 219.891177 -517.064082 227.329065 -510.537183 234.187194 -503.374547 C 246.220736 -490.815211 257.335148 -477.492991 267.106214 -463.068827 C 274.430979 -452.247173 281.06286 -441.001693 286.902875 -429.304134 C 296.362851 -410.373302 303.560352 -390.566565 308.580219 -370.0252 C 311.210347 -359.28831 313.161732 -348.367763 314.335391 -337.320068 C 315.155539 -329.507568 315.749439 -321.695068 316.216074 -313.854312 C 316.541305 -308.58476 316.880676 -303.315207 316.612007 -298.088037 C 316.07467 -287.831482 315.509051 -277.603182 314.349532 -267.389009 C 312.157759 -248.090862 307.788353 -229.287177 301.863495 -210.893189 C 298.667748 -200.975693 294.83568 -191.241855 290.508696 -181.705802 C 282.943543 -165.007112 274.17645 -149.05718 263.571096 -134.110299 C 257.660378 -125.789209 251.367868 -117.764797 244.83497 -109.909914 C 239.532293 -103.538417 233.975087 -97.364706 228.06437 -91.614819 C 215.040995 -78.928336 201.310596 -67.075374 186.265134 -56.691671 C 172.350909 -47.08498 157.927627 -38.424831 142.712479 -31.106793 C 125.192434 -22.686811 107.050208 -15.962127 88.24338 -10.904487 C 78.726842 -8.347412 69.11132 -6.171779 59.439237 -4.47648 C 52.453844 -3.261517 45.397748 -2.314975 38.285091 -1.749876 C 30.932045 -1.170649 23.59314 -0.436019 16.211814 -0.591422 C 15.773459 -0.605549 15.434088 -0.450147 15.278542 0.00193282 Z M 0.00683223 0.00193282 " transform="matrix(0.276246,0,0,-0.2765,257.013738,104.883347)"/></g><g clip-rule="nonzero" clip-path="url(#29eaf1a618)"><path style=" stroke:none;fill-rule:evenodd;fill:#fcb315;fill-opacity:1;" d="M 783.785156 187.691406 C 780.621094 187.535156 367.214844 187.140625 362.578125 188.933594 C 361.652344 189.113281 361.503906 189.085938 360.683594 189.605469 C 359.914062 190.089844 358.972656 191.328125 358.867188 192.132812 C 358.199219 197.136719 357.105469 202.050781 355.816406 206.925781 C 354.765625 210.886719 353.488281 214.773438 352.035156 218.601562 C 350.402344 222.910156 348.503906 227.105469 346.339844 231.167969 C 344.03125 235.5 341.464844 239.675781 338.554688 243.640625 C 336.550781 246.371094 334.417969 248.980469 332.195312 251.535156 C 329.945312 254.113281 327.550781 256.542969 325.015625 258.820312 C 321.234375 262.226562 317.222656 265.355469 312.921875 268.097656 C 308.59375 270.859375 304.101562 273.292969 299.410156 275.390625 C 295.023438 277.34375 290.503906 278.847656 285.84375 279.9375 C 283.296875 280.527344 280.730469 281.035156 278.132812 281.382812 C 274.769531 281.828125 271.386719 282 268.011719 282.285156 C 265.1875 282.523438 262.496094 281.851562 259.734375 281.804688 C 259.382812 281.796875 259.15625 281.777344 258.996094 282.136719 C 258.753906 282.679688 258.390625 283.140625 257.820312 283.554688 C 258.324219 283.679688 258.722656 283.8125 259.128906 283.875 C 262.542969 284.386719 265.992188 284.550781 269.425781 284.367188 C 272.601562 284.203125 275.777344 283.894531 278.933594 283.421875 C 284.28125 282.621094 289.515625 281.382812 294.625 279.648438 C 297.355469 278.71875 299.992188 277.527344 302.609375 276.304688 C 307.617188 273.96875 312.367188 271.195312 316.894531 268.03125 C 319.429688 266.253906 321.878906 264.363281 324.238281 262.355469 C 326.734375 260.234375 329.171875 258.046875 331.398438 255.648438 C 333.273438 253.636719 335.09375 251.570312 336.839844 249.4375 C 338.859375 246.976562 340.757812 244.429688 342.527344 241.792969 C 344.519531 238.820312 346.347656 235.738281 348.042969 232.578125 C 350.015625 228.90625 351.738281 225.121094 353.296875 221.261719 C 355.089844 216.824219 356.570312 212.285156 357.847656 207.671875 C 358.597656 204.96875 359.203125 202.230469 359.792969 199.492188 C 360.234375 197.445312 360.59375 195.375 360.851562 193.296875 C 360.988281 192.195312 361.300781 191.246094 362.324219 190.882812 C 364.160156 190.230469 366.242188 190.441406 368.128906 190.085938 C 369.59375 190.058594 782.527344 189.636719 783.785156 189.722656 Z M 783.785156 187.691406 "/></g><g clip-rule="nonzero" clip-path="url(#08dacc74e9)"><path style="fill:none;stroke-width:5;stroke-linecap:butt;stroke-linejoin:miter;stroke:#fbb327;stroke-opacity:1;stroke-miterlimit:10;" d="M -0.00407107 0.00632095 C -11.457854 0.57142 -1507.97232 1.998297 -1524.757061 -4.48622 C -1528.108353 -5.136084 -1528.645691 -5.037192 -1531.61519 -6.916148 C -1534.400863 -8.667956 -1537.808717 -13.146369 -1538.19051 -16.056631 C -1540.60853 -34.153942 -1544.567863 -51.92632 -1549.234219 -69.557424 C -1553.038006 -83.882695 -1557.66194 -97.939545 -1562.922196 -111.784482 C -1568.832913 -127.367099 -1575.705183 -142.54002 -1583.539004 -157.232606 C -1591.896024 -172.899989 -1601.186314 -188.002273 -1611.720966 -202.341672 C -1618.975028 -212.216785 -1626.695726 -221.653946 -1634.741655 -230.893322 C -1642.886567 -240.217463 -1651.554676 -249.00476 -1660.731843 -257.241085 C -1674.41982 -269.560253 -1688.942085 -280.87637 -1704.510745 -290.793866 C -1720.178388 -300.781999 -1736.439932 -309.583423 -1753.422639 -317.169884 C -1769.302389 -324.233627 -1785.662916 -329.672709 -1802.532499 -333.614278 C -1811.752087 -335.747529 -1821.042377 -337.584102 -1830.445792 -338.841448 C -1842.620738 -340.451982 -1854.866387 -341.073591 -1867.083755 -342.104898 C -1877.307317 -342.966675 -1887.050102 -340.536747 -1897.047416 -340.367217 C -1898.320059 -340.338962 -1899.140206 -340.268325 -1899.719965 -341.568053 C -1900.596675 -343.531774 -1901.911739 -345.198817 -1903.976248 -346.696331 C -1902.152127 -347.148411 -1900.709799 -347.628745 -1899.239189 -347.854785 C -1886.880417 -349.705486 -1874.39438 -350.29884 -1861.964904 -349.634848 C -1850.4687 -349.041494 -1838.972496 -347.925422 -1827.546995 -346.215996 C -1808.188688 -343.319862 -1789.240455 -338.841448 -1770.744717 -332.568844 C -1760.860527 -329.206502 -1751.315708 -324.897619 -1741.841592 -320.475716 C -1723.713507 -312.027479 -1706.518692 -301.996963 -1690.129885 -290.553699 C -1680.952718 -284.125692 -1672.086642 -277.287989 -1663.545797 -270.02646 C -1654.510035 -262.355235 -1645.68638 -254.443843 -1637.626311 -245.769566 C -1630.838884 -238.49391 -1624.249424 -231.02047 -1617.928633 -223.306862 C -1610.618009 -214.406545 -1603.745739 -205.195424 -1597.340105 -195.65937 C -1590.128464 -184.908353 -1583.510723 -173.761766 -1577.373758 -162.332629 C -1570.23282 -149.052792 -1563.996872 -135.363257 -1558.354823 -121.4053 C -1551.864346 -105.356475 -1546.505107 -88.940336 -1541.881173 -72.255774 C -1539.166202 -62.479553 -1536.974429 -52.576185 -1534.839218 -42.672816 C -1533.241344 -35.270013 -1531.940421 -27.782445 -1531.00715 -20.266623 C -1530.512233 -16.282671 -1529.380995 -12.849692 -1525.676192 -11.535836 C -1519.03017 -9.176545 -1511.493298 -9.93943 -1504.66345 -8.653828 C -1499.360773 -8.554936 -4.557303 -7.029167 -0.00407107 -7.339972 Z M -0.00407107 0.00632095 " transform="matrix(0.276246,0,0,-0.2765,783.786281,187.693154)"/></g><path style=" stroke:none;fill-rule:evenodd;fill:#fcb315;fill-opacity:1;" d="M 259.0625 121.121094 C 255.84375 121.054688 252.941406 121.28125 250.074219 121.648438 C 243.554688 122.484375 237.246094 124.132812 231.183594 126.742188 C 226.890625 128.59375 222.828125 130.851562 218.980469 133.480469 C 217.132812 134.738281 215.414062 136.1875 213.648438 137.5625 C 213.386719 137.769531 213.15625 138.03125 212.953125 138.296875 C 212.625 138.722656 213.136719 138.628906 213.480469 139.046875 C 213.84375 139.496094 214.300781 139.851562 214.800781 139.546875 C 215.738281 138.972656 216.050781 138.574219 216.847656 137.804688 C 217.914062 136.785156 219.226562 136.019531 220.4375 135.15625 C 223.613281 132.886719 227.019531 131.019531 230.554688 129.390625 C 234.9375 127.371094 239.484375 125.847656 244.199219 124.828125 C 246.738281 124.277344 249.304688 123.941406 251.882812 123.617188 C 255.488281 123.167969 259.105469 123.222656 262.707031 123.359375 C 265.679688 123.46875 268.644531 123.875 271.589844 124.449219 C 274.617188 125.042969 277.625 125.695312 280.53125 126.707031 C 285.097656 128.292969 289.40625 130.449219 293.496094 133.039062 C 296.746094 135.101562 299.808594 137.414062 302.671875 139.996094 C 305.621094 142.660156 308.335938 145.527344 310.808594 148.644531 C 314.03125 152.707031 316.777344 157.058594 319.007812 161.734375 C 321.171875 166.269531 322.816406 170.984375 323.890625 175.890625 C 324.46875 178.539062 324.914062 181.207031 325.09375 183.921875 C 325.230469 185.980469 325.503906 188.042969 325.394531 190.105469 C 325.230469 193.261719 324.984375 196.40625 324.445312 199.539062 C 323.691406 203.929688 322.464844 208.171875 320.804688 212.285156 C 319.574219 215.328125 318.019531 218.230469 316.21875 220.984375 C 314.21875 224.050781 311.984375 226.929688 309.492188 229.628906 C 305.171875 234.316406 300.25 238.222656 294.792969 241.488281 C 290.570312 244.011719 286.109375 245.996094 281.460938 247.582031 C 278.765625 248.5 276.027344 248.980469 273.183594 248.882812 C 272.914062 248.875 272.515625 248.6875 272.378906 249.101562 C 272.148438 249.796875 271.617188 250.460938 272.035156 251.253906 C 272.179688 251.527344 272.492188 251.417969 272.730469 251.414062 C 275.144531 251.355469 277.507812 251.070312 279.839844 250.355469 C 284.460938 248.9375 288.933594 247.1875 293.191406 244.902344 C 296.839844 242.945312 300.296875 240.6875 303.546875 238.105469 C 305.929688 236.207031 308.210938 234.195312 310.304688 231.984375 C 313.542969 228.554688 316.433594 224.863281 318.863281 220.796875 C 321.265625 216.777344 323.191406 212.570312 324.589844 208.105469 C 325.570312 204.972656 326.25 201.78125 326.78125 198.542969 C 327.460938 194.378906 327.566406 190.191406 327.410156 186.003906 C 327.285156 182.796875 326.847656 179.609375 326.210938 176.453125 C 325.53125 173.078125 324.582031 169.777344 323.382812 166.554688 C 322.058594 162.984375 320.453125 159.550781 318.578125 156.230469 C 316.78125 153.046875 314.710938 150.058594 312.488281 147.183594 C 310.65625 144.820312 308.566406 142.671875 306.441406 140.558594 C 302.253906 136.386719 297.578125 132.871094 292.480469 129.898438 C 288.539062 127.605469 284.4375 125.675781 280.085938 124.3125 C 276.960938 123.332031 273.769531 122.621094 270.53125 122.113281 C 267.761719 121.679688 264.988281 121.359375 262.179688 121.238281 C 261.039062 121.1875 259.890625 121.175781 259.0625 121.121094 "/><path style="fill:none;stroke-width:5;stroke-linecap:butt;stroke-linejoin:miter;stroke:#fbb327;stroke-opacity:1;stroke-miterlimit:10;" d="M -0.00252768 -0.00000327345 C -11.654277 0.240164 -22.160648 -0.57923 -32.539754 -1.907214 C -56.140203 -4.930496 -78.977066 -10.892296 -100.923079 -20.329457 C -116.463458 -27.025885 -131.169549 -35.191573 -145.097914 -44.699371 C -151.786358 -49.248422 -158.008165 -54.48972 -164.399659 -59.462595 C -165.347071 -60.211352 -166.181358 -61.157893 -166.916663 -62.118562 C -168.104463 -63.658458 -166.252061 -63.319399 -165.007699 -64.83104 C -163.692635 -66.455701 -162.0382 -67.741302 -160.22822 -66.639358 C -156.834506 -64.562618 -155.703268 -63.121614 -152.818612 -60.338499 C -148.958263 -56.651225 -144.207064 -53.882238 -139.823518 -50.760063 C -128.327314 -42.551993 -115.996822 -35.799055 -103.199695 -29.907893 C -87.334085 -22.603982 -70.874575 -17.094262 -53.807025 -13.406988 C -44.615718 -11.415013 -35.325428 -10.200049 -25.992716 -9.027467 C -12.94106 -7.402806 0.153018 -7.600591 13.190533 -8.095053 C 23.951432 -8.490623 34.684051 -9.959881 45.345967 -12.036622 C 56.304833 -14.184 67.192997 -16.54329 77.713508 -20.202309 C 94.24372 -25.938069 109.840661 -33.736442 124.645736 -43.102965 C 136.410609 -50.562278 147.496739 -58.92575 157.861705 -68.264019 C 168.537762 -77.898965 178.36539 -88.26854 187.316309 -99.542275 C 198.982199 -114.234861 208.922951 -129.972881 216.997161 -146.883483 C 224.830982 -163.285495 230.784121 -180.337371 234.672751 -198.081495 C 236.765541 -207.659931 238.377555 -217.309004 239.028016 -227.127608 C 239.522933 -234.572793 240.512766 -242.032106 240.116833 -249.491419 C 239.522933 -260.906428 238.632083 -272.279055 236.680698 -283.609299 C 233.951587 -299.488595 229.511479 -314.831045 223.501778 -329.707289 C 219.047529 -340.712601 213.419621 -351.209323 206.900863 -361.169202 C 199.660941 -372.259279 191.572591 -382.671236 182.55097 -392.43333 C 166.911608 -409.386314 149.094612 -423.513801 129.340373 -435.32438 C 114.054522 -444.450736 97.906103 -451.627499 81.078941 -457.363259 C 71.322015 -460.683218 61.409544 -462.420899 51.11528 -462.067712 C 50.139587 -462.039457 48.697259 -461.361338 48.202342 -462.858851 C 47.368055 -465.373544 45.44495 -467.775217 46.957981 -470.643096 C 47.481178 -471.63202 48.612416 -471.236451 49.474985 -471.222323 C 58.213797 -471.010411 66.768783 -469.979104 75.210645 -467.393774 C 91.938823 -462.265497 108.129664 -455.936383 123.542779 -447.671803 C 136.74998 -440.593932 149.264298 -432.428245 161.029171 -423.089976 C 169.654859 -416.224017 177.912895 -408.948362 185.492188 -400.952204 C 197.21464 -388.548271 207.678589 -375.197796 216.473963 -360.491082 C 225.170354 -345.953898 232.141606 -330.738595 237.203895 -314.590878 C 240.753154 -303.260634 243.213596 -291.718477 245.1367 -280.00679 C 247.597143 -264.946889 247.978935 -249.802224 247.413317 -234.657558 C 246.960821 -223.058891 245.377088 -211.530862 243.072192 -200.115853 C 240.611749 -187.909704 237.175615 -175.971978 232.83449 -164.316801 C 228.040869 -151.404279 222.229135 -138.986218 215.441709 -126.977854 C 208.937091 -115.463952 201.442641 -104.656425 193.396712 -94.258595 C 186.764831 -85.711465 179.199678 -77.941348 171.507261 -70.298377 C 156.348675 -55.210221 139.422529 -42.495483 120.969213 -31.744466 C 106.701476 -23.451631 91.853981 -16.472653 76.101494 -11.54216 C 64.789116 -7.996161 53.236351 -5.424958 41.513899 -3.588385 C 31.488304 -2.020234 21.448569 -0.86178 11.281569 -0.423828 C 7.152551 -0.240171 2.995252 -0.197788 -0.00252768 -0.00000327345 Z M -0.00252768 -0.00000327345 " transform="matrix(0.276246,0,0,-0.2765,259.063198,121.121093)"/><path style=" stroke:none;fill-rule:evenodd;fill:#fcb315;fill-opacity:1;" d="M 308.71875 184.933594 C 308.707031 193.0625 307.230469 199.988281 304.546875 206.679688 C 302.683594 211.308594 300.332031 215.671875 297.289062 219.609375 C 295.253906 222.242188 292.761719 224.449219 290.058594 226.410156 C 286.277344 229.152344 282.171875 231.21875 277.699219 232.566406 C 276.980469 232.78125 276.289062 232.84375 275.566406 232.769531 C 274.265625 232.640625 274.070312 232.800781 274.070312 234.046875 C 274.066406 235.496094 274.066406 235.472656 275.449219 235.40625 C 277.242188 235.324219 278.824219 234.503906 280.457031 233.929688 C 284.183594 232.617188 287.667969 230.800781 290.890625 228.480469 C 295.355469 225.257812 299.128906 221.414062 301.949219 216.636719 C 304.441406 212.421875 306.566406 208.054688 308.035156 203.378906 C 309.023438 200.222656 309.792969 197.019531 310.238281 193.734375 C 310.492188 191.855469 310.5625 189.96875 310.773438 188.097656 C 311.011719 185.980469 310.824219 183.898438 310.679688 181.824219 C 310.359375 177.246094 309.394531 172.789062 307.800781 168.457031 C 306.335938 164.472656 303.863281 161.152344 301.273438 157.882812 C 299.9375 156.199219 298.539062 154.566406 296.976562 153.09375 C 293.597656 149.917969 289.945312 147.121094 285.890625 144.839844 C 282.851562 143.132812 279.691406 141.722656 276.394531 140.636719 C 273.761719 139.765625 271.070312 139.082031 268.3125 138.675781 C 265.917969 138.324219 263.523438 138.121094 261.105469 137.976562 C 258.195312 137.800781 255.335938 138.078125 252.460938 138.339844 C 247.203125 138.820312 242.195312 140.277344 237.304688 142.152344 C 234.339844 143.285156 231.550781 144.808594 228.757812 146.3125 C 227.65625 146.90625 227.585938 147.894531 228.570312 148.5625 C 229.15625 148.957031 229.613281 148.449219 229.980469 148.21875 C 232.164062 146.84375 234.476562 145.746094 236.839844 144.71875 C 239.976562 143.359375 243.203125 142.285156 246.523438 141.503906 C 248.722656 140.984375 250.953125 140.640625 253.199219 140.359375 C 255.90625 140.019531 258.613281 139.972656 261.324219 140.066406 C 263.671875 140.152344 266.003906 140.445312 268.328125 140.851562 C 271.402344 141.382812 274.390625 142.191406 277.3125 143.257812 C 280.578125 144.453125 283.675781 146.011719 286.65625 147.808594 C 290.941406 150.390625 294.640625 153.671875 297.992188 157.34375 C 300.808594 160.429688 303.328125 163.777344 305.121094 167.578125 C 306.449219 170.398438 307.246094 173.417969 307.824219 176.472656 C 308.410156 179.558594 308.816406 182.679688 308.71875 184.933594 "/><path style="fill:none;stroke-width:5;stroke-linecap:butt;stroke-linejoin:miter;stroke:#fbb327;stroke-opacity:1;stroke-miterlimit:10;" d="M -0.00100036 0.00535429 C -0.0434218 -29.393946 -5.38852 -54.44198 -15.103025 -78.642364 C -21.84803 -95.383436 -30.360594 -111.163839 -41.376022 -125.404345 C -48.743208 -134.926272 -57.76483 -142.908302 -67.550037 -150.0003 C -81.238014 -159.917796 -96.09965 -167.391236 -112.290491 -172.265219 C -114.892338 -173.042231 -117.395202 -173.268271 -120.011189 -172.999848 C -124.719966 -172.533641 -125.42699 -173.112868 -125.42699 -177.619536 C -125.44113 -182.860834 -125.44113 -182.776069 -120.435403 -182.535902 C -113.944926 -182.239225 -108.218035 -179.272452 -102.307318 -177.195712 C -88.817307 -172.448876 -76.204006 -165.879595 -64.538116 -157.487868 C -48.375556 -145.832691 -34.71586 -131.931244 -24.506439 -114.653328 C -15.484818 -99.40977 -7.792401 -83.61524 -2.475583 -66.704638 C 1.101956 -55.289629 3.88763 -43.70509 5.499643 -31.823873 C 6.418774 -25.028552 6.673303 -18.204976 7.436888 -11.43791 C 8.299457 -3.780812 7.620714 3.749138 7.097517 11.250834 C 5.937998 27.808248 2.445301 43.927711 -3.324011 59.595093 C -8.626688 74.00513 -17.577607 86.013494 -26.952741 97.8382 C -31.788782 103.927147 -36.851071 109.832436 -42.50726 115.158499 C -54.738769 126.644145 -67.96011 136.759426 -82.637921 145.009878 C -93.639208 151.18359 -105.07885 156.283613 -117.013409 160.211054 C -126.544087 163.361483 -136.286873 165.833794 -146.270046 167.303052 C -154.938156 168.574526 -163.606265 169.309155 -172.359217 169.831872 C -182.893869 170.467609 -193.244695 169.464558 -203.652083 168.518016 C -222.685158 166.780335 -240.813244 161.510783 -258.517115 154.729589 C -269.249734 150.632618 -279.346031 145.122898 -289.456469 139.683816 C -293.444082 137.536438 -293.69861 133.962184 -290.135211 131.546383 C -288.014141 130.119507 -286.359705 131.95608 -285.030501 132.789602 C -277.125977 137.762477 -268.754817 141.732301 -260.199832 145.44783 C -248.845032 150.364196 -237.165002 154.249254 -225.145601 157.074752 C -217.184515 158.953708 -209.110305 160.196926 -200.979533 161.214105 C -191.180186 162.443197 -181.380839 162.612727 -171.567351 162.273667 C -163.068927 161.962862 -154.627065 160.903301 -146.213484 159.434042 C -135.084932 157.512704 -124.267471 154.588314 -113.690398 150.73151 C -101.868963 146.408499 -90.655568 140.771632 -79.866388 134.272988 C -64.35429 124.934719 -50.963263 113.067631 -38.830737 99.787793 C -28.635457 88.627079 -19.514852 76.519822 -13.024375 62.773778 C -8.216615 52.573732 -5.331958 41.653185 -3.239169 30.605491 C -1.118098 19.444776 0.352511 8.156914 -0.00100036 0.00535429 Z M -0.00100036 0.00535429 " transform="matrix(0.276246,0,0,-0.2765,308.719026,184.935074)"/><path style=" stroke:none;fill-rule:evenodd;fill:#fcb315;fill-opacity:1;" d="M 274.480469 219.507812 C 276.175781 218.730469 277.558594 217.621094 278.953125 216.542969 C 281.054688 214.917969 283.203125 213.347656 285.191406 211.597656 C 286.347656 210.578125 287.300781 209.304688 288.226562 208.058594 C 291.128906 204.164062 293.003906 199.789062 294.125 195.078125 C 294.945312 191.644531 295.050781 188.140625 294.800781 184.667969 C 294.5 180.507812 293.300781 176.542969 291.238281 172.886719 C 289.355469 169.550781 286.886719 166.714844 283.804688 164.441406 C 281.167969 162.496094 278.53125 160.542969 275.71875 158.84375 C 271.78125 156.464844 267.660156 154.585938 263.054688 153.878906 C 261.246094 153.601562 259.4375 153.480469 257.632812 153.585938 C 252.652344 153.871094 247.949219 155.128906 243.769531 157.953125 C 242.890625 158.546875 242.972656 158.667969 242.054688 159.207031 C 241.660156 159.441406 243.121094 159.59375 243.554688 159.855469 C 243.648438 159.914062 243.308594 160.671875 243.382812 160.753906 C 244.027344 161.457031 244.027344 161.457031 243.382812 160.753906 C 246.5625 158.417969 250.117188 156.882812 253.988281 156.117188 C 256.476562 155.625 259.011719 155.617188 261.515625 155.808594 C 264.179688 156.007812 266.730469 156.828125 269.203125 157.882812 C 271.753906 158.96875 274.171875 160.292969 276.425781 161.875 C 279.683594 164.164062 283.148438 166.203125 285.863281 169.183594 C 288.59375 172.183594 290.539062 175.625 291.660156 179.550781 C 292.527344 182.574219 292.933594 185.640625 292.804688 188.761719 C 292.640625 192.679688 291.78125 196.460938 290.277344 200.089844 C 289.183594 202.730469 287.726562 205.164062 286.003906 207.425781 C 284.421875 209.5 282.425781 211.164062 280.351562 212.726562 C 279.007812 213.742188 277.660156 214.75 276.34375 215.800781 C 275.832031 216.210938 275.285156 216.519531 274.683594 216.730469 C 274.285156 216.867188 274.171875 217.078125 274.238281 217.484375 C 274.339844 218.121094 274.394531 218.765625 274.480469 219.507812 "/><path style="fill:none;stroke-width:5;stroke-linecap:butt;stroke-linejoin:miter;stroke:#fbb327;stroke-opacity:1;stroke-miterlimit:10;" d="M -0.00521092 0.00202453 C 6.131754 2.813394 11.137481 6.825601 16.18563 10.724787 C 23.793204 16.601821 31.570464 22.281071 38.767964 28.610185 C 42.953544 32.297459 46.403819 36.90302 49.755111 41.409688 C 60.261482 55.494792 67.048909 71.317578 71.107224 88.355327 C 74.076724 100.773387 74.458516 113.445743 73.553526 126.005079 C 72.46471 141.050852 68.123585 155.390251 60.657415 168.613579 C 53.841708 180.678452 44.904929 190.935008 33.748097 199.157205 C 24.203278 206.192693 14.658459 213.256437 4.477319 219.401894 C -9.776277 228.005533 -24.694476 234.800854 -41.366092 237.357929 C -47.913131 238.360981 -54.46017 238.798933 -60.993068 238.417491 C -79.02217 237.386184 -96.047299 232.837133 -111.177604 222.62296 C -114.359211 220.475583 -114.062261 220.03763 -117.385272 218.088037 C -118.813459 217.240388 -113.524923 216.689416 -111.95533 215.742874 C -111.615959 215.530962 -112.84618 212.79023 -112.577511 212.493553 C -110.244333 209.950605 -110.244333 209.950605 -112.577511 212.493553 C -101.067167 220.94179 -88.199337 226.493892 -74.186129 229.262879 C -65.178648 231.042943 -56.001481 231.071198 -46.937439 230.378951 C -37.293636 229.658449 -28.059908 226.691677 -19.108989 222.877255 C -9.875261 218.949814 -1.122308 214.160596 7.036744 208.438964 C 18.829898 200.160257 31.372497 192.785709 41.200125 182.006436 C 51.084316 171.156526 58.126271 158.710211 62.184586 144.512086 C 65.323771 133.577412 66.79438 122.487335 66.327745 111.199473 C 65.733845 97.029603 62.622941 83.354196 57.178859 70.229761 C 53.219527 60.67958 47.945131 51.878156 41.709182 43.698341 C 35.982291 36.196646 28.75651 30.178336 21.247919 24.527342 C 16.383596 20.854195 11.505134 17.209303 6.739794 13.409009 C 4.887393 11.925623 2.907726 10.809552 0.730094 10.046668 C -0.712235 9.552206 -1.122308 8.789321 -0.88192 7.320063 C -0.514268 5.017282 -0.316301 2.686247 -0.00521092 0.00202453 Z M -0.00521092 0.00202453 " transform="matrix(0.276246,0,0,-0.2765,274.481908,219.508372)"/><path style=" stroke:none;fill-rule:evenodd;fill:#fcb315;fill-opacity:1;" d="M 274.433594 189.335938 C 274.140625 193.464844 272.699219 197.113281 269.777344 200.113281 C 269.320312 200.582031 269.050781 201.074219 268.933594 201.707031 C 268.863281 202.082031 268.882812 202.375 269.179688 202.613281 C 269.523438 202.882812 269.851562 202.78125 270.191406 202.570312 C 271.757812 201.613281 272.808594 200.207031 273.59375 198.589844 C 274.710938 196.292969 275.785156 193.992188 276.25 191.429688 C 276.671875 189.078125 276.351562 186.863281 275.511719 184.683594 C 274.5625 182.226562 273.171875 180.042969 271.253906 178.226562 C 268.417969 175.53125 265.0625 173.789062 261.191406 173.226562 C 259.691406 173.007812 258.105469 173.007812 256.597656 173.519531 C 256.113281 173.683594 255.652344 173.894531 255.726562 174.484375 C 255.808594 175.125 256.3125 175.25 256.871094 175.199219 C 258.808594 175.015625 260.730469 175.054688 262.644531 175.488281 C 265.648438 176.164062 268.160156 177.691406 270.292969 179.855469 C 272.042969 181.636719 273 183.910156 273.980469 186.152344 C 274.421875 187.160156 274.371094 188.242188 274.433594 189.335938 "/><path style="fill:none;stroke-width:5;stroke-linecap:butt;stroke-linejoin:miter;stroke:#fbb327;stroke-opacity:1;stroke-miterlimit:10;" d="M 0.0061333 -0.00229308 C -1.054402 -14.935047 -6.272236 -28.130119 -16.84931 -38.980029 C -18.503745 -40.675327 -19.479438 -42.455391 -19.903652 -44.744044 C -20.15818 -46.100282 -20.087478 -47.159844 -19.012802 -48.02162 C -17.76844 -48.996417 -16.580641 -48.629102 -15.35042 -47.866218 C -9.68009 -44.404984 -5.876303 -39.319089 -3.034068 -33.470309 C 1.010107 -25.163347 4.898737 -16.842257 6.581453 -7.574626 C 8.108624 0.930121 6.949105 8.940406 3.908904 16.823544 C 0.472769 25.709733 -4.561239 33.606998 -11.504211 40.176279 C -21.770194 49.924245 -33.91686 56.225104 -47.930068 58.259462 C -53.360009 59.050601 -59.101041 59.050601 -64.559263 57.199901 C -66.312682 56.606546 -67.981258 55.843662 -67.712589 53.710411 C -67.415639 51.393504 -65.591518 50.941424 -63.56943 51.125081 C -56.555756 51.789073 -49.598644 51.647798 -42.669812 50.079647 C -31.795789 47.635592 -22.703465 42.111745 -14.982767 34.285117 C -8.647836 27.842983 -5.18342 19.620786 -1.634161 11.511609 C -0.0362881 7.866717 -0.220114 3.953403 0.0061333 -0.00229308 Z M 0.0061333 -0.00229308 " transform="matrix(0.276246,0,0,-0.2765,274.431899,189.335303)"/><path style=" stroke:none;fill-rule:evenodd;fill:#fcb315;fill-opacity:1;" d="M 120.558594 233.066406 C 120.5625 232.664062 120.523438 232.3125 121.125 232.246094 C 123.425781 232 125.703125 231.585938 127.972656 231.125 C 128.640625 230.988281 129.582031 230.730469 130.058594 231.289062 C 130.800781 232.152344 131.433594 233.210938 131.507812 234.386719 C 131.589844 235.722656 131.710938 237.046875 131.859375 238.375 C 132.214844 241.507812 132.941406 244.554688 133.871094 247.558594 C 135.085938 251.464844 136.734375 255.179688 138.8125 258.703125 C 140.875 262.203125 143.300781 265.421875 146.085938 268.367188 C 147.277344 269.628906 148.597656 270.75 149.910156 271.878906 C 152.476562 274.089844 155.269531 275.972656 158.277344 277.484375 C 161.003906 278.855469 163.886719 279.867188 166.832031 280.695312 C 171.140625 281.902344 175.550781 282.453125 180.007812 282.617188 C 181.3125 282.664062 182.628906 282.613281 183.945312 282.511719 C 185.800781 282.363281 187.652344 282.222656 189.496094 281.96875 C 192.28125 281.582031 195.007812 280.945312 197.691406 280.113281 C 201.273438 279.007812 204.707031 277.550781 207.996094 275.730469 C 211.671875 273.699219 215.066406 271.28125 218.09375 268.394531 C 221.175781 265.460938 223.6875 262.035156 225.960938 258.4375 C 227.761719 255.582031 229.335938 252.609375 230.652344 249.507812 C 232.1875 245.886719 233.300781 242.117188 234.175781 238.277344 C 234.78125 235.605469 235.257812 232.898438 235.355469 230.167969 C 235.429688 228.144531 235.667969 226.125 235.460938 224.0625 C 235.257812 222.023438 235.179688 219.964844 234.917969 217.917969 C 234.519531 214.820312 233.808594 211.804688 232.890625 208.824219 C 231.574219 204.539062 229.769531 200.472656 227.472656 196.625 C 225.167969 192.761719 222.414062 189.242188 219.421875 185.886719 C 217.484375 183.71875 215.082031 182.144531 212.753906 180.511719 C 208.863281 177.78125 204.6875 175.507812 200.324219 173.589844 C 197.804688 172.484375 195.191406 171.574219 192.816406 170.144531 C 192.28125 169.824219 191.972656 169.414062 191.828125 168.773438 C 191.59375 167.738281 192.003906 166.828125 192.207031 165.882812 C 192.761719 163.28125 193.410156 160.703125 194.648438 158.3125 C 194.910156 157.808594 195.078125 157.667969 195.699219 157.839844 C 197.378906 158.304688 198.980469 158.988281 200.628906 159.539062 C 204.949219 160.980469 209.003906 163.050781 212.902344 165.394531 C 217.394531 168.101562 221.488281 171.359375 225.324219 174.933594 C 227.453125 176.917969 229.375 179.109375 231.210938 181.359375 C 233.671875 184.371094 235.882812 187.5625 237.832031 190.945312 C 240.230469 195.117188 242.28125 199.4375 243.84375 203.984375 C 245.210938 207.96875 246.234375 212.042969 246.933594 216.207031 C 247.390625 218.949219 247.773438 221.699219 247.863281 224.457031 C 248.011719 229.09375 247.9375 233.730469 247.261719 238.351562 C 246.8125 241.445312 246.1875 244.476562 245.210938 247.4375 C 243.667969 252.105469 241.675781 256.558594 239.148438 260.792969 C 236.761719 264.800781 234.027344 268.542969 230.894531 271.980469 C 228.277344 274.851562 225.4375 277.511719 222.351562 279.894531 C 218.832031 282.613281 215.121094 285.03125 211.160156 287.058594 C 207.132812 289.121094 202.9375 290.75 198.597656 292.019531 C 194.960938 293.085938 191.246094 293.703125 187.492188 294.125 C 185.539062 294.34375 183.578125 294.332031 181.550781 294.285156 C 178.488281 294.390625 175.390625 294.101562 172.292969 293.648438 C 169.015625 293.167969 165.824219 292.398438 162.660156 291.445312 C 158.46875 290.191406 154.507812 288.433594 150.765625 286.175781 C 147.515625 284.214844 144.433594 282.011719 141.648438 279.441406 C 139.222656 277.203125 136.953125 274.804688 134.871094 272.226562 C 132.363281 269.125 130.160156 265.828125 128.253906 262.335938 C 126.148438 258.488281 124.453125 254.449219 123.214844 250.230469 C 122.226562 246.84375 121.425781 243.417969 121.046875 239.898438 C 120.804688 237.625 120.550781 235.355469 120.558594 233.066406 M 195.0625 181.402344 C 197.601562 182.398438 200.027344 183.648438 202.375 185.054688 C 205.757812 187.078125 208.898438 189.421875 211.761719 192.125 C 213.59375 193.855469 215.242188 195.746094 216.851562 197.6875 C 219.632812 201.046875 221.535156 204.875 223.136719 208.890625 C 224.972656 213.480469 226.097656 218.253906 226.414062 223.167969 C 226.683594 227.320312 226.46875 231.484375 225.558594 235.574219 C 224.53125 240.171875 222.839844 244.507812 220.507812 248.609375 C 218.535156 252.074219 216.0625 255.148438 213.398438 258.082031 C 212.0625 259.554688 210.527344 260.820312 209.019531 262.109375 C 207.445312 263.453125 205.816406 264.761719 204.011719 265.765625 C 201.171875 267.34375 198.183594 268.605469 195.054688 269.542969 C 190.28125 270.96875 185.433594 271.664062 180.4375 271.507812 C 177.84375 271.429688 175.285156 271.152344 172.769531 270.601562 C 165.964844 269.117188 159.910156 266.0625 154.703125 261.425781 C 151.824219 258.859375 149.449219 255.863281 147.558594 252.476562 C 144.667969 247.304688 143.179688 241.730469 142.691406 235.863281 C 142.464844 233.097656 142.890625 230.363281 143.304688 227.640625 C 143.621094 225.574219 144.386719 223.628906 145.097656 221.675781 C 145.347656 220.988281 145.753906 220.484375 146.421875 220.148438 C 148.34375 219.1875 150.183594 218.074219 151.996094 216.921875 C 156.679688 213.953125 161.085938 210.601562 165.117188 206.796875 C 166.863281 205.148438 168.71875 203.65625 170.625 202.222656 C 171.378906 201.65625 171.980469 200.816406 173.007812 200.644531 C 175.351562 200.257812 177.6875 199.949219 180.09375 200.109375 C 182.988281 200.300781 185.761719 200.910156 188.457031 201.925781 C 191.296875 202.996094 193.871094 204.535156 196.117188 206.570312 C 198.625 208.84375 200.699219 211.441406 202.035156 214.617188 C 203.390625 217.839844 204.078125 221.191406 204.308594 224.644531 C 204.4375 226.511719 204.277344 228.378906 204.011719 230.242188 C 203.636719 232.851562 202.941406 235.347656 201.832031 237.738281 C 200.46875 240.679688 198.578125 243.21875 196.015625 245.214844 C 194.378906 246.492188 192.613281 247.574219 190.597656 248.144531 C 187.71875 248.960938 184.773438 249.25 181.785156 249.171875 C 179.375 249.109375 177.074219 248.582031 174.921875 247.527344 C 172.78125 246.480469 170.964844 245.007812 169.472656 243.117188 C 167.390625 240.480469 166.300781 237.554688 166.859375 234.183594 C 167.480469 230.421875 171.21875 225.273438 175.691406 224.699219 C 177.054688 224.527344 178.421875 224.152344 179.675781 225.148438 C 180.382812 225.710938 180.59375 226.203125 180.253906 227.027344 C 179.945312 227.773438 179.414062 228.316406 178.738281 228.746094 C 177.273438 229.671875 176.308594 230.875 176.628906 232.75 C 176.691406 233.101562 176.726562 233.460938 176.804688 233.808594 C 177.152344 235.335938 177.832031 236.65625 179.429688 237.148438 C 181.179688 237.683594 182.804688 237.1875 184.335938 236.292969 C 184.40625 236.25 184.457031 236.175781 184.507812 236.109375 C 185.726562 234.601562 186.828125 233.023438 187.539062 231.210938 C 188.101562 229.78125 188.773438 228.355469 188.234375 226.746094 C 187.636719 224.949219 187.109375 223.132812 186.332031 221.390625 C 184.558594 217.410156 182.027344 214.171875 177.945312 212.375 C 175.734375 211.40625 173.382812 210.992188 171.03125 211.363281 C 168.277344 211.800781 165.6875 212.847656 163.300781 214.339844 C 160.183594 216.292969 157.707031 218.851562 155.949219 222.101562 C 154.433594 224.90625 153.609375 227.886719 153.28125 231.070312 C 153.046875 233.351562 153.152344 235.597656 153.539062 237.808594 C 154.222656 241.726562 155.722656 245.339844 158.03125 248.625 C 159.921875 251.324219 162.207031 253.582031 164.902344 255.457031 C 167.695312 257.394531 170.773438 258.71875 174.03125 259.59375 C 176.355469 260.21875 178.722656 260.683594 181.148438 260.65625 C 183.382812 260.632812 185.605469 260.699219 187.839844 260.351562 C 190.988281 259.859375 194.011719 258.992188 196.90625 257.6875 C 201.269531 255.71875 205.019531 252.921875 208.078125 249.21875 C 209.792969 247.140625 211.210938 244.882812 212.203125 242.371094 C 213.769531 238.390625 214.691406 234.246094 214.9375 229.988281 C 215.15625 226.203125 214.847656 222.4375 213.988281 218.707031 C 212.953125 214.230469 211.242188 210.070312 208.792969 206.191406 C 206.757812 202.972656 204.292969 200.164062 201.359375 197.726562 C 199.226562 195.953125 196.972656 194.371094 194.542969 193.058594 C 190.085938 190.652344 185.316406 189.21875 180.136719 188.632812 C 181.683594 186.546875 183.175781 184.597656 184.601562 182.601562 C 185.953125 180.707031 187.824219 180.144531 190.042969 180.125 C 191.851562 180.109375 193.453125 180.769531 195.0625 181.402344 M 89.558594 236.789062 C 89.554688 238.449219 89.78125 240.082031 89.890625 241.722656 C 90.277344 247.523438 91.386719 253.214844 92.898438 258.816406 C 93.828125 262.265625 95.039062 265.628906 96.398438 268.9375 C 97.5625 271.773438 98.863281 274.550781 100.316406 277.242188 C 102.492188 281.273438 104.980469 285.109375 107.695312 288.800781 C 110.925781 293.1875 114.660156 297.105469 118.59375 300.832031 C 121.269531 303.367188 124.175781 305.640625 127.191406 307.765625 C 131.390625 310.722656 135.816406 313.308594 140.46875 315.484375 C 143.429688 316.871094 146.464844 318.078125 149.554688 319.171875 C 154.984375 321.089844 160.578125 322.363281 166.203125 323.5 C 168.117188 323.886719 170.085938 324.078125 172.046875 324.25 C 175.585938 324.5625 179.121094 324.796875 182.671875 324.726562 C 183.574219 324.726562 184.472656 324.730469 185.375 324.726562 C 188.132812 324.714844 190.863281 324.414062 193.597656 324.074219 C 199.519531 323.34375 205.277344 321.941406 210.910156 320 C 213.875 318.976562 216.765625 317.78125 219.621094 316.484375 C 225.664062 313.742188 231.339844 310.367188 236.84375 306.683594 C 240.199219 304.433594 243.472656 302.070312 246.550781 299.476562 C 248.652344 297.707031 250.429688 295.558594 252.414062 293.648438 C 254.128906 291.996094 255.5 290.089844 256.832031 288.132812 C 261.625 281.101562 265.214844 273.441406 268.394531 265.597656 C 270.632812 260.078125 272.195312 254.324219 273.253906 248.4375 C 273.855469 245.082031 274.125 241.691406 274.554688 238.316406 C 275.28125 232.644531 275.03125 226.941406 274.683594 221.277344 C 274.265625 214.425781 273.136719 207.65625 271.480469 200.976562 C 270.105469 195.410156 268.019531 190.132812 265.589844 184.957031 C 263.28125 180.035156 259.878906 175.886719 256.625 171.625 C 252.769531 166.574219 248.46875 161.933594 243.875 157.5625 C 242.566406 156.316406 241.015625 155.367188 239.660156 154.183594 C 234.296875 149.503906 228.027344 146.222656 221.910156 142.722656 C 216.203125 139.464844 210.253906 136.679688 204.316406 133.875 C 201.859375 132.710938 199.402344 131.550781 196.96875 130.34375 C 196.199219 129.960938 196.035156 130.648438 195.707031 130.957031 C 194.925781 131.695312 194.945312 131.746094 195.867188 132.179688 C 199.765625 134.019531 203.632812 135.921875 207.449219 137.917969 C 212.597656 140.613281 217.65625 143.472656 222.5625 146.601562 C 225.839844 148.691406 229.039062 150.894531 232.140625 153.230469 C 234.199219 154.777344 236.234375 156.378906 238.128906 158.125 C 243.277344 162.871094 244.609375 164.265625 246.523438 166.269531 C 249.144531 169.011719 251.5 172 253.703125 175.101562 C 256.9375 179.652344 259.738281 184.464844 262.089844 189.53125 C 263.972656 193.578125 265.464844 197.769531 266.640625 202.074219 C 267.40625 204.859375 268.03125 207.675781 268.539062 210.523438 C 268.941406 212.785156 269.160156 215.066406 269.503906 217.335938 C 269.601562 217.992188 269.609375 218.664062 269.664062 219.328125 C 269.949219 222.832031 269.976562 226.351562 269.816406 229.855469 C 269.695312 232.589844 269.421875 235.328125 269.054688 238.058594 C 268.511719 242.136719 267.714844 246.15625 266.644531 250.125 C 265.601562 254 264.328125 257.800781 262.773438 261.511719 C 261.550781 264.441406 260.183594 267.304688 258.703125 270.109375 C 256.539062 274.210938 254.015625 278.09375 251.203125 281.785156 C 249.398438 284.152344 247.453125 286.394531 245.449219 288.59375 C 242.675781 291.636719 239.613281 294.335938 236.433594 296.929688 C 233.277344 299.496094 229.941406 301.796875 226.4375 303.832031 C 223.386719 305.601562 220.238281 307.183594 216.96875 308.535156 C 214.246094 309.65625 211.5 310.683594 208.6875 311.550781 C 205.191406 312.625 201.644531 313.488281 198.03125 314.09375 C 195.355469 314.542969 192.671875 314.871094 189.96875 315.125 C 186.417969 315.457031 182.859375 315.566406 179.3125 315.394531 C 173.539062 315.117188 167.828125 314.335938 162.191406 312.960938 C 156.832031 311.648438 151.648438 309.882812 146.628906 307.613281 C 140.90625 305.023438 135.542969 301.824219 130.566406 297.980469 C 128.699219 296.535156 126.894531 295.019531 125.144531 293.433594 C 124.058594 292.453125 123.011719 291.441406 121.996094 290.398438 C 118.800781 287.113281 115.898438 283.574219 113.296875 279.792969 C 110.644531 275.941406 108.359375 271.878906 106.40625 267.640625 C 104.402344 263.292969 102.8125 258.789062 101.617188 254.136719 C 100.875 251.253906 100.296875 248.339844 99.824219 245.410156 C 99.539062 243.632812 99.445312 241.820312 99.238281 240.03125 C 99.058594 238.5 99.335938 236.957031 98.957031 235.445312 C 98.820312 234.890625 99.25 234.921875 99.574219 234.972656 C 100.394531 235.105469 101.207031 235.25 102.035156 235.34375 C 102.96875 235.449219 103.894531 235.613281 104.839844 235.652344 C 105.695312 235.6875 106.601562 235.660156 107.382812 235.945312 C 108.488281 236.347656 109.355469 237.195312 110.070312 238.132812 C 110.757812 239.039062 110.835938 240.042969 110.664062 241.191406 C 110.519531 242.144531 110.769531 243.175781 110.949219 244.152344 C 111.484375 247.101562 112.082031 250.039062 112.953125 252.914062 C 114.320312 257.402344 116.003906 261.765625 118.210938 265.90625 C 120.097656 269.4375 122.136719 272.863281 124.738281 275.953125 C 127.015625 278.660156 129.421875 281.230469 131.992188 283.644531 C 134.554688 286.050781 137.324219 288.222656 140.214844 290.238281 C 143.390625 292.449219 146.699219 294.4375 150.183594 296.09375 C 155.761719 298.746094 161.554688 300.777344 167.648438 301.929688 C 170.449219 302.457031 173.25 302.910156 176.097656 303.109375 C 178.210938 303.257812 180.324219 303.449219 182.445312 303.425781 C 185.511719 303.386719 188.554688 303.144531 191.601562 302.777344 C 194.726562 302.402344 197.8125 301.820312 200.847656 301.039062 C 204.414062 300.121094 207.90625 298.957031 211.296875 297.507812 C 213.832031 296.425781 216.328125 295.261719 218.746094 293.949219 C 221.46875 292.46875 223.988281 290.6875 226.441406 288.808594 C 228.515625 287.21875 230.46875 285.484375 232.40625 283.726562 C 235.597656 280.828125 238.402344 277.605469 241.054688 274.222656 C 244.507812 269.8125 247.417969 265.074219 249.804688 260.019531 C 252.453125 254.40625 254.492188 248.585938 255.6875 242.472656 C 256.199219 239.867188 256.621094 237.257812 256.875 234.609375 C 257.027344 233.027344 257.132812 231.449219 257.222656 229.859375 C 257.277344 228.828125 257.375 227.800781 257.355469 226.765625 C 257.292969 223.53125 257.09375 220.3125 256.714844 217.097656 C 256.304688 213.636719 255.679688 210.226562 254.8125 206.859375 C 253.824219 203.023438 252.523438 199.292969 250.976562 195.636719 C 248.957031 190.871094 246.5 186.347656 243.65625 182.042969 C 242.179688 179.808594 240.546875 177.679688 238.859375 175.589844 C 236.773438 173.015625 234.441406 170.683594 232.097656 168.359375 C 229.414062 165.691406 226.433594 163.375 223.375 161.160156 C 219.429688 158.308594 215.203125 155.921875 210.808594 153.855469 C 206.027344 151.605469 201.113281 149.699219 195.976562 148.417969 C 195.925781 148.40625 195.875 148.390625 195.824219 148.378906 C 195.691406 148.355469 195.5625 148.320312 195.4375 148.28125 C 195.261719 148.238281 195.089844 148.1875 194.910156 148.140625 C 194.777344 148.113281 194.648438 148.078125 194.523438 148.039062 C 194.363281 147.996094 194.203125 147.957031 194.046875 147.910156 C 192.832031 147.554688 192.253906 147.894531 192.003906 149.160156 C 191.558594 151.425781 191.074219 153.683594 190.488281 155.917969 C 189.394531 160.097656 188 164.175781 186.4375 168.199219 C 185.261719 171.234375 183.398438 173.875 181.75 176.632812 C 179.980469 179.582031 178.0625 182.449219 176.070312 185.261719 C 173.878906 188.351562 171.648438 191.402344 169.21875 194.3125 C 167.828125 195.976562 166.488281 197.6875 164.953125 199.222656 C 162.425781 201.746094 159.75 204.101562 157 206.382812 C 154.167969 208.738281 151.210938 210.914062 148.101562 212.863281 C 144.128906 215.351562 140.011719 217.589844 135.734375 219.53125 C 131.773438 221.324219 127.726562 222.878906 123.570312 224.164062 C 119.628906 225.382812 115.632812 226.355469 111.558594 227.042969 C 109.335938 227.417969 107.105469 227.582031 104.863281 227.742188 C 102.753906 227.890625 100.65625 227.894531 98.558594 227.835938 C 96.230469 227.769531 93.886719 227.738281 91.566406 227.367188 C 90.355469 227.171875 90.195312 227.296875 89.855469 228.472656 C 89.472656 229.792969 89.578125 231.167969 89.578125 232.496094 C 89.574219 233.921875 89.5625 235.363281 89.558594 236.789062 "/><path style=" stroke:none;fill-rule:evenodd;fill:#fcb315;fill-opacity:1;" d="M 1.921875 133.238281 C 2.089844 130.738281 2.351562 128.25 2.675781 125.777344 C 3.03125 123.078125 3.5625 120.390625 4.1875 117.738281 C 5.738281 111.136719 7.917969 104.734375 10.78125 98.589844 C 13.285156 93.207031 16.101562 87.984375 19.570312 83.140625 C 21.980469 79.773438 24.535156 76.527344 27.441406 73.570312 C 28.992188 71.988281 30.597656 70.460938 32.222656 68.953125 C 33.589844 67.683594 34.960938 66.410156 36.429688 65.265625 C 39.144531 63.148438 41.953125 61.15625 44.859375 59.289062 C 49.257812 56.464844 53.828125 53.996094 58.628906 51.945312 C 63.113281 50.03125 67.726562 48.53125 72.46875 47.410156 C 75.691406 46.648438 78.941406 46.089844 82.234375 45.699219 C 85.082031 45.359375 87.933594 45.121094 90.796875 45.054688 C 92.003906 45.023438 93.214844 45.046875 94.8125 45.046875 C 96.496094 45.183594 98.566406 44.980469 100.644531 45.175781 C 102.882812 45.386719 105.113281 45.601562 107.34375 45.878906 C 109.972656 46.210938 112.558594 46.753906 115.132812 47.351562 C 118.289062 48.085938 121.378906 49.058594 124.441406 50.125 C 127.480469 51.183594 130.492188 52.3125 133.394531 53.695312 C 139.214844 56.46875 144.71875 59.769531 149.722656 63.867188 C 152.789062 66.375 155.746094 68.976562 158.445312 71.898438 C 161.257812 74.945312 163.960938 78.074219 166.5 81.351562 C 169.109375 84.714844 171.367188 88.308594 173.371094 92.058594 C 174.542969 94.246094 175.621094 96.484375 176.589844 98.773438 C 178.023438 102.148438 179.207031 105.601562 180.128906 109.144531 C 181.253906 113.464844 182.207031 117.820312 182.714844 122.273438 C 183.007812 124.847656 183.203125 127.425781 183.3125 130 C 183.464844 133.492188 183.246094 136.984375 182.84375 140.464844 C 182.640625 142.226562 182.59375 144.015625 182.300781 145.761719 C 181.804688 148.691406 181.238281 151.605469 180.503906 154.492188 C 179.164062 159.738281 177.289062 164.785156 174.949219 169.648438 C 172.808594 174.101562 170.289062 178.34375 167.46875 182.40625 C 165.378906 185.417969 163.097656 188.277344 160.589844 190.9375 C 157.425781 194.292969 154.039062 197.402344 150.371094 200.222656 C 146.734375 203.023438 142.925781 205.546875 138.90625 207.746094 C 133.675781 210.605469 128.171875 212.851562 122.464844 214.582031 C 118.777344 215.699219 115.003906 216.445312 111.179688 216.996094 C 108.707031 217.355469 106.226562 217.683594 103.746094 217.761719 C 100.585938 217.859375 97.410156 217.914062 94.238281 217.667969 C 91.527344 217.457031 88.828125 217.199219 86.136719 216.808594 C 82.625 216.292969 79.152344 215.664062 75.789062 214.445312 C 72.429688 213.230469 69.039062 212.105469 65.792969 210.605469 C 60.789062 208.296875 55.878906 205.800781 51.308594 202.691406 C 47.652344 200.207031 44.253906 197.402344 41.082031 194.324219 C 39.472656 192.765625 37.941406 191.136719 36.488281 189.429688 C 34.832031 187.488281 33.273438 185.484375 31.816406 183.394531 C 28.964844 179.3125 26.582031 174.96875 24.617188 170.394531 C 22.996094 166.621094 21.75 162.726562 20.710938 158.757812 C 19.859375 155.5 19.277344 152.199219 18.804688 148.859375 C 18.457031 146.414062 18.148438 143.957031 18.054688 141.503906 C 17.945312 138.734375 17.914062 135.953125 18.140625 133.171875 C 18.316406 131.011719 18.53125 128.863281 18.835938 126.71875 C 19.289062 123.523438 20.066406 120.402344 20.867188 117.28125 C 22.125 112.359375 23.976562 107.660156 26.109375 103.066406 C 27.261719 100.585938 28.554688 98.179688 30.007812 95.867188 C 32.234375 92.320312 34.714844 88.960938 37.582031 85.902344 C 38.761719 84.644531 39.9375 83.378906 41.214844 82.199219 C 42.898438 80.652344 44.613281 79.144531 46.417969 77.761719 C 49.742188 75.207031 53.242188 72.917969 56.90625 70.867188 C 60.859375 68.652344 64.914062 66.691406 69.171875 65.152344 C 74.589844 63.191406 80.195312 62.09375 85.902344 61.449219 C 88.402344 61.164062 90.921875 61.292969 93.433594 61.140625 C 95.96875 60.984375 98.511719 61.265625 101.046875 61.433594 C 103.015625 61.5625 104.957031 61.816406 106.90625 62.089844 C 110.734375 62.628906 114.464844 63.570312 118.132812 64.742188 C 121.363281 65.777344 124.410156 67.238281 127.40625 68.839844 C 130.402344 70.441406 133.363281 72.074219 136.15625 73.996094 C 139.546875 76.332031 142.703125 78.957031 145.667969 81.804688 C 147.082031 83.160156 148.363281 84.640625 149.652344 86.109375 C 151.375 88.070312 152.984375 90.109375 154.472656 92.246094 C 157.222656 96.199219 159.496094 100.414062 161.382812 104.839844 C 162.777344 108.109375 163.910156 111.464844 164.761719 114.914062 C 165.320312 117.1875 165.742188 119.488281 166.15625 121.792969 C 166.535156 123.898438 166.859375 126.011719 166.914062 128.132812 C 166.960938 129.988281 167.199219 131.839844 167.015625 133.730469 C 166.808594 135.832031 166.847656 137.964844 166.65625 140.082031 C 166.421875 142.652344 165.96875 145.171875 165.433594 147.683594 C 164.339844 152.84375 162.609375 157.796875 160.355469 162.558594 C 159.046875 165.328125 157.554688 168.003906 156.007812 170.648438 C 152.910156 175.9375 148.988281 180.503906 144.402344 184.542969 C 141.613281 186.996094 138.664062 189.214844 135.535156 191.214844 C 131.21875 193.976562 126.644531 196.171875 121.820312 197.878906 C 117.421875 199.4375 112.914062 200.488281 108.285156 201.105469 C 105.410156 201.488281 102.523438 201.605469 99.636719 201.742188 C 98.746094 201.78125 97.855469 201.660156 96.96875 201.613281 C 95.410156 201.527344 93.859375 201.433594 92.308594 201.261719 C 89.863281 200.988281 87.453125 200.585938 85.042969 200.089844 C 79.945312 199.046875 75.113281 197.261719 70.417969 195.085938 C 67.210938 193.605469 64.191406 191.78125 61.300781 189.734375 C 58.582031 187.8125 55.996094 185.71875 53.558594 183.460938 C 51.527344 181.578125 49.574219 179.601562 47.832031 177.433594 C 45.492188 174.523438 43.414062 171.4375 41.664062 168.140625 C 39.605469 164.261719 37.914062 160.230469 36.75 155.984375 C 35.980469 153.195312 35.433594 150.363281 35.03125 147.488281 C 34.664062 144.847656 34.414062 142.199219 34.242188 139.542969 C 34.050781 136.660156 34.300781 133.777344 34.578125 130.910156 C 34.851562 128.054688 35.382812 125.222656 36.113281 122.453125 C 37.351562 117.785156 39.015625 113.253906 41.503906 109.09375 C 44.792969 103.589844 48.496094 98.390625 53.25 94.011719 C 54.726562 92.65625 56.183594 91.273438 57.757812 90.027344 C 61.292969 87.226562 65.046875 84.800781 69.152344 82.898438 C 73.386719 80.933594 77.738281 79.382812 82.273438 78.285156 C 86.148438 77.351562 90.085938 77.027344 94.039062 76.84375 C 95.792969 76.757812 97.542969 77.042969 99.292969 77.144531 C 101.703125 77.285156 104.070312 77.714844 106.410156 78.242188 C 110.90625 79.25 115.164062 80.972656 119.304688 82.980469 C 123.339844 84.933594 127.144531 87.246094 130.652344 90.0625 C 133.234375 92.136719 135.613281 94.40625 137.757812 96.90625 C 139.828125 99.316406 141.632812 101.921875 143.238281 104.675781 C 144.730469 107.234375 146.007812 109.882812 147.03125 112.652344 C 148.566406 116.796875 149.628906 121.054688 150.117188 125.46875 C 150.390625 127.902344 150.636719 130.335938 150.71875 132.773438 C 150.796875 135.191406 150.554688 137.613281 150.265625 140.027344 C 149.988281 142.277344 149.605469 144.503906 149.085938 146.703125 C 148.085938 150.96875 146.371094 154.953125 144.183594 158.75 C 142.347656 161.941406 140.261719 164.972656 137.824219 167.714844 C 135.710938 170.089844 133.417969 172.320312 130.859375 174.257812 C 126.917969 177.242188 122.59375 179.511719 118.003906 181.300781 C 114.972656 182.484375 111.855469 183.324219 108.644531 183.878906 C 105.824219 184.367188 102.992188 184.695312 100.148438 184.820312 C 97.582031 184.933594 95.015625 184.773438 92.445312 184.546875 C 90.03125 184.335938 87.699219 183.84375 85.40625 183.136719 C 81.699219 181.984375 78.171875 180.34375 74.675781 178.683594 C 71.035156 176.957031 68.050781 174.25 65.210938 171.4375 C 64.078125 170.3125 63.007812 169.09375 62.011719 167.8125 C 60.277344 165.585938 58.695312 163.273438 57.351562 160.792969 C 55.078125 156.605469 53.410156 152.195312 52.382812 147.535156 C 51.75 144.652344 51.277344 141.761719 51.289062 138.8125 C 51.296875 137.019531 51.238281 135.230469 51.414062 133.433594 C 51.625 131.253906 51.9375 129.101562 52.410156 126.96875 C 53.3125 122.875 54.851562 119.039062 56.910156 115.390625 C 59.109375 111.507812 61.941406 108.136719 65.183594 105.101562 C 66.886719 103.507812 68.824219 102.25 70.917969 101.199219 C 73.972656 99.667969 77.089844 98.273438 80.308594 97.136719 C 83.070312 96.164062 85.769531 94.988281 88.828125 95.027344 C 90.117188 95.042969 91.460938 94.65625 92.773438 94.613281 C 94.613281 94.554688 96.460938 94.542969 98.316406 94.710938 C 100.832031 94.9375 103.269531 95.460938 105.667969 96.199219 C 109.601562 97.414062 113.023438 99.660156 116.578125 101.644531 C 116.863281 101.804688 116.84375 102.015625 116.769531 102.195312 C 116.660156 102.464844 116.394531 102.355469 116.1875 102.300781 C 115.179688 102.027344 114.167969 101.773438 113.171875 101.464844 C 108.570312 100.042969 103.859375 99.136719 99.0625 98.832031 C 95.519531 98.609375 91.960938 98.761719 88.449219 99.335938 C 85.65625 99.792969 82.925781 100.519531 80.25 101.488281 C 75.835938 103.085938 71.898438 105.464844 68.355469 108.515625 C 65.398438 111.066406 63.148438 114.183594 61.363281 117.660156 C 59.484375 121.328125 58.046875 125.148438 57.125 129.171875 C 56.421875 132.226562 55.878906 135.296875 55.832031 138.441406 C 55.808594 140.0625 55.949219 141.664062 56.144531 143.277344 C 56.433594 145.671875 56.984375 147.988281 57.664062 150.289062 C 58.335938 152.558594 59.5 154.585938 60.65625 156.621094 C 62.203125 159.351562 64.078125 161.855469 66.195312 164.152344 C 67.898438 166 69.691406 167.773438 71.664062 169.367188 C 74.269531 171.476562 77.015625 173.351562 79.960938 174.9375 C 82.78125 176.457031 85.734375 177.660156 88.796875 178.578125 C 91.28125 179.320312 93.8125 179.953125 96.398438 180.082031 C 99.683594 180.242188 102.957031 180.039062 106.226562 179.476562 C 110.65625 178.71875 114.90625 177.433594 118.921875 175.476562 C 122.84375 173.5625 126.230469 170.832031 129.429688 167.882812 C 131.507812 165.96875 133.414062 163.878906 135.148438 161.648438 C 136.992188 159.273438 138.769531 156.847656 140.136719 154.15625 C 141.351562 151.769531 142.21875 149.253906 143 146.695312 C 144.378906 142.160156 145 137.519531 145.171875 132.800781 C 145.226562 131.234375 145.167969 129.667969 145.019531 128.101562 C 144.871094 126.53125 144.804688 124.9375 144.445312 123.402344 C 143.367188 118.804688 141.785156 114.398438 139.503906 110.238281 C 137.386719 106.375 134.789062 102.882812 131.785156 99.6875 C 130.328125 98.140625 128.703125 96.785156 127.058594 95.4375 C 124.316406 93.1875 121.355469 91.28125 118.222656 89.640625 C 114.039062 87.453125 109.671875 85.730469 105.070312 84.644531 C 102.433594 84.023438 99.75 83.601562 97.050781 83.457031 C 95.398438 83.367188 93.726562 83.335938 92.058594 83.386719 C 89.550781 83.460938 87.070312 83.617188 84.597656 84.078125 C 79.949219 84.941406 75.5 86.414062 71.226562 88.40625 C 68.320312 89.761719 65.652344 91.535156 63.058594 93.40625 C 59.292969 96.117188 55.878906 99.21875 52.933594 102.8125 C 50.351562 105.960938 48.277344 109.441406 46.375 113.027344 C 44.378906 116.792969 42.824219 120.71875 42.019531 124.921875 C 41.453125 127.886719 41 130.875 40.84375 133.882812 C 40.753906 135.566406 40.691406 137.265625 40.777344 138.964844 C 40.875 140.917969 40.910156 142.863281 41.109375 144.816406 C 41.34375 147.105469 41.667969 149.382812 42.21875 151.597656 C 43.320312 156.03125 44.789062 160.332031 46.933594 164.414062 C 49.296875 168.902344 52.390625 172.800781 55.832031 176.464844 C 57.308594 178.035156 58.921875 179.460938 60.546875 180.878906 C 62.363281 182.464844 64.175781 184.046875 66.214844 185.347656 C 70.226562 187.898438 74.457031 190.011719 78.9375 191.605469 C 82.359375 192.824219 85.863281 193.730469 89.453125 194.355469 C 92.578125 194.902344 95.71875 195.175781 98.875 195.308594 C 101.832031 195.429688 104.777344 195.148438 107.726562 194.847656 C 110.535156 194.558594 113.292969 194.058594 115.972656 193.199219 C 120.667969 191.691406 125.234375 189.859375 129.507812 187.371094 C 133.609375 184.984375 137.378906 182.128906 140.851562 178.910156 C 142.632812 177.257812 144.363281 175.542969 145.882812 173.613281 C 148.792969 169.914062 151.363281 166.007812 153.460938 161.792969 C 154.980469 158.734375 156.183594 155.539062 157.164062 152.269531 C 158.058594 149.289062 158.75 146.261719 159.222656 143.179688 C 159.640625 140.457031 160.03125 137.734375 160.027344 134.984375 C 160.023438 131.90625 160.195312 128.824219 159.722656 125.75 C 159.457031 124.007812 159.210938 122.257812 158.90625 120.519531 C 158.421875 117.777344 157.761719 115.082031 156.996094 112.410156 C 155.902344 108.589844 154.617188 104.847656 152.574219 101.410156 C 150.070312 97.191406 147.246094 93.195312 143.945312 89.574219 C 141.339844 86.71875 138.558594 84.023438 135.507812 81.640625 C 133.03125 79.707031 130.421875 77.96875 127.679688 76.410156 C 124.460938 74.574219 121.125 73.027344 117.65625 71.757812 C 112.882812 70.011719 107.945312 68.957031 102.894531 68.34375 C 99.960938 67.988281 97.023438 67.816406 94.078125 67.714844 C 92.824219 67.667969 91.566406 67.746094 90.308594 67.824219 C 88.558594 67.929688 86.832031 68.082031 85.09375 68.351562 C 81.714844 68.871094 78.414062 69.683594 75.160156 70.71875 C 69.8125 72.421875 64.757812 74.757812 59.933594 77.644531 C 54.839844 80.6875 50.242188 84.355469 45.988281 88.46875 C 44.984375 89.441406 44.027344 90.472656 43.105469 91.523438 C 41.808594 93.007812 40.496094 94.484375 39.308594 96.054688 C 37.230469 98.804688 35.339844 101.675781 33.625 104.675781 C 31.746094 107.964844 30.132812 111.375 28.839844 114.921875 C 27.40625 118.847656 26.289062 122.867188 25.558594 127.003906 C 25.023438 130.023438 24.753906 133.054688 24.617188 136.097656 C 24.480469 139.226562 24.75 142.34375 25.066406 145.464844 C 25.355469 148.332031 25.855469 151.15625 26.488281 153.953125 C 27.675781 159.1875 29.71875 164.125 32.105469 168.90625 C 33.976562 172.65625 36.128906 176.253906 38.578125 179.664062 C 40.472656 182.300781 42.4375 184.882812 44.664062 187.238281 C 48.179688 190.949219 51.882812 194.449219 56.019531 197.496094 C 61.453125 201.496094 67.277344 204.703125 73.671875 206.867188 C 78.34375 208.449219 83.105469 209.621094 87.980469 210.40625 C 91.570312 210.984375 95.179688 211.007812 98.789062 211.207031 C 99.820312 211.265625 100.855469 211.105469 101.878906 211.082031 C 104.335938 211.015625 106.769531 210.816406 109.207031 210.5625 C 112.289062 210.242188 115.332031 209.742188 118.335938 209.015625 C 122.75 207.941406 127.0625 206.558594 131.171875 204.613281 C 135.496094 202.574219 139.621094 200.183594 143.515625 197.40625 C 146.320312 195.40625 149 193.25 151.453125 190.824219 C 153.003906 189.285156 154.476562 187.679688 155.914062 186.035156 C 157.847656 183.824219 159.652344 181.515625 161.3125 179.09375 C 164.128906 174.996094 166.617188 170.722656 168.699219 166.195312 C 170.011719 163.335938 171.191406 160.433594 172.195312 157.464844 C 173.722656 152.953125 174.945312 148.363281 175.621094 143.628906 C 175.96875 141.179688 176.328125 138.726562 176.382812 136.273438 C 176.496094 131.214844 176.550781 126.148438 175.777344 121.109375 C 175.378906 118.488281 174.996094 115.867188 174.351562 113.300781 C 173.132812 108.441406 171.40625 103.742188 169.269531 99.207031 C 167.507812 95.460938 165.542969 91.816406 163.210938 88.386719 C 160.441406 84.3125 157.296875 80.542969 153.875 77.007812 C 152.105469 75.179688 150.1875 73.515625 148.257812 71.859375 C 146.15625 70.054688 143.957031 68.386719 141.6875 66.808594 C 137.582031 63.957031 133.273438 61.464844 128.726562 59.371094 C 125.875 58.058594 122.988281 56.84375 120.011719 55.867188 C 115.25 54.304688 110.433594 52.976562 105.417969 52.453125 C 102.511719 52.148438 99.605469 51.875 96.683594 51.816406 C 92.9375 51.738281 89.203125 51.890625 85.46875 52.292969 C 83.570312 52.496094 81.664062 52.695312 79.792969 53.035156 C 76.878906 53.570312 73.980469 54.207031 71.113281 54.996094 C 66.679688 56.21875 62.359375 57.757812 58.195312 59.691406 C 53.988281 61.644531 50.03125 64.046875 46.234375 66.722656 C 42.480469 69.367188 38.96875 72.292969 35.664062 75.472656 C 33.949219 77.121094 32.351562 78.878906 30.765625 80.660156 C 29.289062 82.320312 27.863281 84.035156 26.554688 85.816406 C 24.4375 88.699219 22.460938 91.679688 20.664062 94.792969 C 18.109375 99.222656 15.914062 103.800781 14.273438 108.648438 C 12.414062 114.132812 11.03125 119.726562 10.195312 125.46875 C 9.753906 128.519531 9.375 131.582031 9.269531 134.648438 C 9.160156 137.8125 9.128906 140.988281 9.355469 144.164062 C 9.578125 147.324219 9.882812 150.460938 10.390625 153.589844 C 10.867188 156.527344 11.5 159.429688 12.261719 162.300781 C 13.554688 167.152344 15.316406 171.828125 17.410156 176.378906 C 19.589844 181.113281 22.335938 185.496094 25.519531 189.625 C 28.222656 193.132812 31.136719 196.429688 34.273438 199.550781 C 37.59375 202.859375 41.152344 205.863281 44.902344 208.671875 C 48.773438 211.570312 52.867188 214.113281 57.109375 216.410156 C 62.226562 219.1875 67.597656 221.386719 73.214844 222.957031 C 75.835938 223.6875 78.46875 224.371094 81.132812 224.90625 C 84.082031 225.5 87.058594 225.925781 90.046875 226.296875 C 92.726562 226.628906 95.417969 226.785156 98.105469 226.898438 C 100.476562 227 102.863281 226.972656 105.25 226.8125 C 107.496094 226.65625 109.722656 226.484375 111.949219 226.121094 C 116.273438 225.414062 120.503906 224.335938 124.675781 223.03125 C 128.429688 221.859375 132.085938 220.421875 135.667969 218.785156 C 140.363281 216.640625 144.90625 214.207031 149.257812 211.425781 C 152.003906 209.671875 154.59375 207.699219 157.121094 205.632812 C 159.476562 203.710938 161.746094 201.703125 163.945312 199.609375 C 166.03125 197.625 167.871094 195.425781 169.707031 193.207031 C 171.453125 191.097656 173.101562 188.910156 174.722656 186.703125 C 177.003906 183.59375 179.144531 180.382812 181.1875 177.109375 C 182.6875 174.699219 184.210938 172.304688 185.582031 169.824219 C 186.964844 167.3125 187.816406 164.5625 188.753906 161.859375 C 190.15625 157.832031 191.167969 153.695312 192.109375 149.539062 C 192.226562 149.023438 192.078125 148.238281 192.527344 148.070312 C 192.988281 147.898438 193.667969 148.15625 194.191406 148.371094 C 194.789062 148.617188 195.21875 148.65625 195.410156 148.128906 C 195.519531 148.152344 195.636719 148.171875 195.75 148.183594 C 195.949219 148.265625 196.152344 148.335938 196.378906 148.378906 C 196.5 151.1875 196.046875 153.925781 195.09375 156.554688 C 193.976562 159.652344 192.429688 162.578125 191.472656 165.757812 C 190.769531 168.09375 189.671875 170.304688 188.730469 172.566406 C 188.066406 174.164062 187.515625 175.839844 186.652344 177.324219 C 183.707031 182.371094 180.644531 187.34375 177.207031 192.074219 C 175.101562 194.972656 173.269531 198.066406 170.367188 200.34375 C 168.4375 201.855469 166.777344 203.710938 164.9375 205.351562 C 164.292969 205.925781 163.695312 206.554688 163.023438 207.101562 C 161.09375 208.671875 159.160156 210.242188 157.191406 211.769531 C 156.140625 212.582031 155.207031 213.542969 154.054688 214.21875 C 151.917969 215.472656 149.773438 216.714844 147.636719 217.96875 C 145.976562 218.941406 144.40625 220.085938 142.632812 220.839844 C 139.222656 222.289062 135.773438 223.652344 132.3125 224.992188 C 130.625 225.648438 128.996094 226.472656 127.238281 226.929688 C 123.914062 227.789062 120.570312 228.558594 117.25 229.433594 C 114.269531 230.21875 111.261719 230.71875 108.179688 230.847656 C 106.851562 230.902344 105.523438 231.070312 104.195312 231.1875 C 101.597656 231.414062 99.007812 231.785156 96.394531 231.828125 C 94.917969 231.855469 93.453125 231.609375 91.984375 231.523438 C 89.539062 231.382812 87.101562 231.105469 84.65625 231.027344 C 82.222656 230.949219 79.902344 230.371094 77.558594 229.859375 C 75.144531 229.332031 72.714844 228.847656 70.308594 228.273438 C 68.582031 227.859375 66.824219 227.566406 65.1875 226.761719 C 63.144531 225.753906 61.011719 224.925781 58.921875 224.003906 C 57.1875 223.238281 55.425781 222.511719 53.738281 221.648438 C 51.898438 220.710938 50.125 219.644531 48.324219 218.625 C 46.742188 217.734375 45.121094 216.894531 43.585938 215.921875 C 40.566406 214.003906 37.820312 211.726562 35.140625 209.359375 C 32.398438 206.945312 29.671875 204.53125 27.140625 201.886719 C 24.59375 199.230469 22.210938 196.449219 19.996094 193.511719 C 17.121094 189.699219 14.542969 185.6875 12.285156 181.480469 C 10.835938 178.785156 9.527344 176.015625 8.371094 173.175781 C 6.898438 169.554688 5.640625 165.867188 4.65625 162.085938 C 3.660156 158.265625 2.914062 154.402344 2.445312 150.480469 C 2.125 147.769531 1.769531 145.0625 1.804688 142.332031 C 1.84375 139.300781 1.71875 136.273438 1.921875 133.238281 "/></g></svg>